<svg width="286" height="176" viewBox="0 0 286 176" fill="none" xmlns="http://www.w3.org/2000/svg">
<g filter="url(#filter0_d_77_2404)">
<circle cx="83" cy="87" r="13" fill="url(#paint0_linear_77_2404)"/>
</g>
<g filter="url(#filter1_d_77_2404)">
<path d="M108.2 94.14C107.227 94.14 106.347 93.9733 105.56 93.64C104.787 93.3067 104.173 92.8267 103.72 92.2C103.267 91.5733 103.033 90.8333 103.02 89.98H106.02C106.06 90.5533 106.26 91.0067 106.62 91.34C106.993 91.6733 107.5 91.84 108.14 91.84C108.793 91.84 109.307 91.6867 109.68 91.38C110.053 91.06 110.24 90.6467 110.24 90.14C110.24 89.7267 110.113 89.3867 109.86 89.12C109.607 88.8533 109.287 88.6467 108.9 88.5C108.527 88.34 108.007 88.1667 107.34 87.98C106.433 87.7133 105.693 87.4533 105.12 87.2C104.56 86.9333 104.073 86.54 103.66 86.02C103.26 85.4867 103.06 84.78 103.06 83.9C103.06 83.0733 103.267 82.3533 103.68 81.74C104.093 81.1267 104.673 80.66 105.42 80.34C106.167 80.0067 107.02 79.84 107.98 79.84C109.42 79.84 110.587 80.1933 111.48 80.9C112.387 81.5933 112.887 82.5667 112.98 83.82H109.9C109.873 83.34 109.667 82.9467 109.28 82.64C108.907 82.32 108.407 82.16 107.78 82.16C107.233 82.16 106.793 82.3 106.46 82.58C106.14 82.86 105.98 83.2667 105.98 83.8C105.98 84.1733 106.1 84.4867 106.34 84.74C106.593 84.98 106.9 85.18 107.26 85.34C107.633 85.4867 108.153 85.66 108.82 85.86C109.727 86.1267 110.467 86.3933 111.04 86.66C111.613 86.9267 112.107 87.3267 112.52 87.86C112.933 88.3933 113.14 89.0933 113.14 89.96C113.14 90.7067 112.947 91.4 112.56 92.04C112.173 92.68 111.607 93.1933 110.86 93.58C110.113 93.9533 109.227 94.14 108.2 94.14ZM122.048 94.14C120.741 94.14 119.541 93.8333 118.448 93.22C117.354 92.6067 116.488 91.76 115.848 90.68C115.208 89.5867 114.888 88.3533 114.888 86.98C114.888 85.62 115.208 84.4 115.848 83.32C116.488 82.2267 117.354 81.3733 118.448 80.76C119.541 80.1467 120.741 79.84 122.048 79.84C123.368 79.84 124.568 80.1467 125.648 80.76C126.741 81.3733 127.601 82.2267 128.228 83.32C128.868 84.4 129.188 85.62 129.188 86.98C129.188 88.3533 128.868 89.5867 128.228 90.68C127.601 91.76 126.741 92.6067 125.648 93.22C124.554 93.8333 123.354 94.14 122.048 94.14ZM122.048 91.64C122.888 91.64 123.628 91.4533 124.268 91.08C124.908 90.6933 125.408 90.1467 125.768 89.44C126.128 88.7333 126.308 87.9133 126.308 86.98C126.308 86.0467 126.128 85.2333 125.768 84.54C125.408 83.8333 124.908 83.2933 124.268 82.92C123.628 82.5467 122.888 82.36 122.048 82.36C121.208 82.36 120.461 82.5467 119.808 82.92C119.168 83.2933 118.668 83.8333 118.308 84.54C117.948 85.2333 117.768 86.0467 117.768 86.98C117.768 87.9133 117.948 88.7333 118.308 89.44C118.668 90.1467 119.168 90.6933 119.808 91.08C120.461 91.4533 121.208 91.64 122.048 91.64ZM139.891 80.04V82.3H134.071V85.88H138.531V88.1H134.071V94H131.271V80.04H139.891ZM151.376 80.04V82.3H147.656V94H144.856V82.3H141.136V80.04H151.376ZM168.365 84.36C168.365 85.1067 168.185 85.8067 167.825 86.46C167.478 87.1133 166.925 87.64 166.165 88.04C165.418 88.44 164.471 88.64 163.325 88.64H160.985V94H158.185V80.04H163.325C164.405 80.04 165.325 80.2267 166.085 80.6C166.845 80.9733 167.411 81.4867 167.785 82.14C168.171 82.7933 168.365 83.5333 168.365 84.36ZM163.205 86.38C163.978 86.38 164.551 86.2067 164.925 85.86C165.298 85.5 165.485 85 165.485 84.36C165.485 83 164.725 82.32 163.205 82.32H160.985V86.38H163.205ZM176.833 94.14C175.526 94.14 174.326 93.8333 173.233 93.22C172.139 92.6067 171.273 91.76 170.633 90.68C169.993 89.5867 169.673 88.3533 169.673 86.98C169.673 85.62 169.993 84.4 170.633 83.32C171.273 82.2267 172.139 81.3733 173.233 80.76C174.326 80.1467 175.526 79.84 176.833 79.84C178.153 79.84 179.353 80.1467 180.433 80.76C181.526 81.3733 182.386 82.2267 183.013 83.32C183.653 84.4 183.973 85.62 183.973 86.98C183.973 88.3533 183.653 89.5867 183.013 90.68C182.386 91.76 181.526 92.6067 180.433 93.22C179.339 93.8333 178.139 94.14 176.833 94.14ZM176.833 91.64C177.673 91.64 178.413 91.4533 179.053 91.08C179.693 90.6933 180.193 90.1467 180.553 89.44C180.913 88.7333 181.093 87.9133 181.093 86.98C181.093 86.0467 180.913 85.2333 180.553 84.54C180.193 83.8333 179.693 83.2933 179.053 82.92C178.413 82.5467 177.673 82.36 176.833 82.36C175.993 82.36 175.246 82.5467 174.593 82.92C173.953 83.2933 173.453 83.8333 173.093 84.54C172.733 85.2333 172.553 86.0467 172.553 86.98C172.553 87.9133 172.733 88.7333 173.093 89.44C173.453 90.1467 173.953 90.6933 174.593 91.08C175.246 91.4533 175.993 91.64 176.833 91.64ZM188.856 80.04V94H186.056V80.04H188.856ZM203.562 94H200.762L194.422 84.42V94H191.622V80.02H194.422L200.762 89.62V80.02H203.562V94ZM215.829 80.04V82.3H212.109V94H209.309V82.3H205.589V80.04H215.829Z" fill="#24DC9F"/>
</g>
<g filter="url(#filter2_d_77_2404)">
<circle cx="83" cy="87" r="4" fill="white"/>
<circle cx="83" cy="87" r="4.5" stroke="#F9FEFC"/>
</g>
<g filter="url(#filter3_d_77_2404)">
<rect x="115.242" y="93.7222" width="19.3138" height="2.11682" rx="1.05841" transform="rotate(-49.6636 115.242 93.7222)" fill="#FEDF8B"/>
</g>
<g filter="url(#filter4_d_77_2404)">
<rect x="170.244" y="93.7188" width="19.3097" height="2.11682" rx="1.05841" transform="rotate(-49.6636 170.244 93.7188)" fill="#FEDF8B"/>
</g>
<defs>
<filter id="filter0_d_77_2404" x="0" y="8" width="166" height="166" filterUnits="userSpaceOnUse" color-interpolation-filters="sRGB">
<feFlood flood-opacity="0" result="BackgroundImageFix"/>
<feColorMatrix in="SourceAlpha" type="matrix" values="0 0 0 0 0 0 0 0 0 0 0 0 0 0 0 0 0 0 127 0" result="hardAlpha"/>
<feOffset dy="4"/>
<feGaussianBlur stdDeviation="35"/>
<feComposite in2="hardAlpha" operator="out"/>
<feColorMatrix type="matrix" values="0 0 0 0 0.607843 0 0 0 0 0.843137 0 0 0 0 0.764706 0 0 0 0.8 0"/>
<feBlend mode="normal" in2="BackgroundImageFix" result="effect1_dropShadow_77_2404"/>
<feBlend mode="normal" in="SourceGraphic" in2="effect1_dropShadow_77_2404" result="shape"/>
</filter>
<filter id="filter1_d_77_2404" x="33.0195" y="13.8398" width="252.811" height="154.3" filterUnits="userSpaceOnUse" color-interpolation-filters="sRGB">
<feFlood flood-opacity="0" result="BackgroundImageFix"/>
<feColorMatrix in="SourceAlpha" type="matrix" values="0 0 0 0 0 0 0 0 0 0 0 0 0 0 0 0 0 0 127 0" result="hardAlpha"/>
<feOffset dy="4"/>
<feGaussianBlur stdDeviation="35"/>
<feComposite in2="hardAlpha" operator="out"/>
<feColorMatrix type="matrix" values="0 0 0 0 0.607843 0 0 0 0 0.843137 0 0 0 0 0.764706 0 0 0 0.8 0"/>
<feBlend mode="normal" in2="BackgroundImageFix" result="effect1_dropShadow_77_2404"/>
<feBlend mode="normal" in="SourceGraphic" in2="effect1_dropShadow_77_2404" result="shape"/>
</filter>
<filter id="filter2_d_77_2404" x="77" y="82" width="12" height="12" filterUnits="userSpaceOnUse" color-interpolation-filters="sRGB">
<feFlood flood-opacity="0" result="BackgroundImageFix"/>
<feColorMatrix in="SourceAlpha" type="matrix" values="0 0 0 0 0 0 0 0 0 0 0 0 0 0 0 0 0 0 127 0" result="hardAlpha"/>
<feOffset dy="1"/>
<feGaussianBlur stdDeviation="0.5"/>
<feComposite in2="hardAlpha" operator="out"/>
<feColorMatrix type="matrix" values="0 0 0 0 0.0211458 0 0 0 0 0.120833 0 0 0 0 0.08875 0 0 0 0.2 0"/>
<feBlend mode="normal" in2="BackgroundImageFix" result="effect1_dropShadow_77_2404"/>
<feBlend mode="normal" in="SourceGraphic" in2="effect1_dropShadow_77_2404" result="shape"/>
</filter>
<filter id="filter3_d_77_2404" x="31.6758" y="0.433594" width="173.248" height="175.225" filterUnits="userSpaceOnUse" color-interpolation-filters="sRGB">
<feFlood flood-opacity="0" result="BackgroundImageFix"/>
<feColorMatrix in="SourceAlpha" type="matrix" values="0 0 0 0 0 0 0 0 0 0 0 0 0 0 0 0 0 0 127 0" result="hardAlpha"/>
<feOffset dx="-4" dy="1"/>
<feGaussianBlur stdDeviation="40"/>
<feComposite in2="hardAlpha" operator="out"/>
<feColorMatrix type="matrix" values="0 0 0 0 0.964706 0 0 0 0 0.847059 0 0 0 0 0.529412 0 0 0 0.7 0"/>
<feBlend mode="normal" in2="BackgroundImageFix" result="effect1_dropShadow_77_2404"/>
<feBlend mode="normal" in="SourceGraphic" in2="effect1_dropShadow_77_2404" result="shape"/>
</filter>
<filter id="filter4_d_77_2404" x="86.6777" y="0.433105" width="173.246" height="175.222" filterUnits="userSpaceOnUse" color-interpolation-filters="sRGB">
<feFlood flood-opacity="0" result="BackgroundImageFix"/>
<feColorMatrix in="SourceAlpha" type="matrix" values="0 0 0 0 0 0 0 0 0 0 0 0 0 0 0 0 0 0 127 0" result="hardAlpha"/>
<feOffset dx="-4" dy="1"/>
<feGaussianBlur stdDeviation="40"/>
<feComposite in2="hardAlpha" operator="out"/>
<feColorMatrix type="matrix" values="0 0 0 0 0.964706 0 0 0 0 0.847059 0 0 0 0 0.529412 0 0 0 0.7 0"/>
<feBlend mode="normal" in2="BackgroundImageFix" result="effect1_dropShadow_77_2404"/>
<feBlend mode="normal" in="SourceGraphic" in2="effect1_dropShadow_77_2404" result="shape"/>
</filter>
<linearGradient id="paint0_linear_77_2404" x1="81.5662" y1="78.6838" x2="83" y2="100" gradientUnits="userSpaceOnUse">
<stop stop-color="#8EE7CA"/>
<stop offset="1" stop-color="#2FEEAF"/>
</linearGradient>
</defs>
</svg>
